<svg xmlns="http://www.w3.org/2000/svg" width="19" height="19" fill="none" viewBox="0 0 19 19">
    <circle r="9.5" fill="#DAF2F5" transform="matrix(-1 0 0 1 9.5 9.5)"/>
    <path fill="#67CBD9" d="M3 9.5a.872.872 0 0 0 .268.637l3.714 3.597a.93.93 0 0 0 .66.266.954.954 0 0 0 .659-.266.898.898 0 0 0 .275-.638.875.875 0 0 0-.275-.639l-2.133-2.056h8.903a.945.945 0 0 0 .657-.264.885.885 0 0 0 .272-.636V9.5a.885.885 0 0 0-.272-.636.945.945 0 0 0-.657-.264H6.168L8.3 6.543a.898.898 0 0 0 .275-.639.875.875 0 0 0-.275-.638.931.931 0 0 0-.66-.266.955.955 0 0 0-.659.266L3.268 8.863A.89.89 0 0 0 3 9.5z"/>
</svg>
