<svg xmlns="http://www.w3.org/2000/svg" width="168" height="33" fill="none" viewBox="0 0 168 33">
    <path fill="#000" d="M57.396 10.492v2.132c.919-1.525 2.383-2.288 4.394-2.288 1.075 0 2.028.243 2.86.728a4.979 4.979 0 0 1 1.976 2.08 6.124 6.124 0 0 1 2.08-2.028c.867-.52 1.829-.78 2.886-.78 1.768 0 3.172.546 4.212 1.638 1.04 1.092 1.56 2.609 1.56 4.55V25h-4.42v-7.878c0-.936-.251-1.655-.754-2.158-.485-.52-1.161-.78-2.028-.78s-1.551.26-2.054.78c-.485.503-.728 1.222-.728 2.158V25h-4.42v-7.878c0-.936-.251-1.655-.754-2.158-.485-.52-1.161-.78-2.028-.78s-1.551.26-2.054.78c-.485.503-.728 1.222-.728 2.158V25H52.95V10.492h4.446zM85.19 8.854c-.503.503-1.118.754-1.846.754S82 9.357 81.498 8.854c-.503-.503-.754-1.118-.754-1.846 0-.745.25-1.37.754-1.872.502-.503 1.118-.754 1.846-.754s1.343.251 1.846.754c.502.503.754 1.127.754 1.872 0 .728-.252 1.343-.754 1.846zM81.134 25V10.492h4.446V25h-4.446zM95.65 21.23h1.585V25h-2.262c-1.63 0-2.894-.355-3.796-1.066-.884-.728-1.326-1.967-1.326-3.718v-6.032H88.5v-3.692h1.352V6.956h4.446v3.536h2.912v3.692h-2.912v6.032c0 .676.45 1.014 1.352 1.014zM104.724 10.492v2.132c.919-1.525 2.383-2.288 4.394-2.288 1.075 0 2.028.243 2.86.728a4.98 4.98 0 0 1 1.976 2.08 6.124 6.124 0 0 1 2.08-2.028c.867-.52 1.829-.78 2.886-.78 1.768 0 3.172.546 4.212 1.638 1.04 1.092 1.56 2.609 1.56 4.55V25h-4.42v-7.878c0-.936-.251-1.655-.754-2.158-.485-.52-1.161-.78-2.028-.78s-1.551.26-2.054.78c-.485.503-.728 1.222-.728 2.158V25h-4.42v-7.878c0-.936-.251-1.655-.754-2.158-.485-.52-1.161-.78-2.028-.78s-1.551.26-2.054.78c-.485.503-.728 1.222-.728 2.158V25h-4.446V10.492h4.446zM134.624 25.182c-2.115 0-3.848-.676-5.2-2.028-1.352-1.37-2.028-3.18-2.028-5.434 0-2.253.667-4.047 2.002-5.382 1.352-1.335 3.094-2.002 5.226-2.002s3.9.659 5.304 1.976c1.404 1.317 2.106 3.146 2.106 5.486 0 .503-.035.97-.104 1.404h-9.984c.086.641.372 1.17.858 1.586.485.399 1.005.598 1.56.598.572 0 .996-.052 1.274-.156.277-.121.476-.234.598-.338.138-.121.312-.312.52-.572h4.81c-.416 1.456-1.248 2.635-2.496 3.536-1.248.884-2.73 1.326-4.446 1.326zm2.782-8.762a2.32 2.32 0 0 0-.884-1.638c-.52-.433-1.136-.65-1.846-.65-.711 0-1.309.217-1.794.65-.486.416-.789.962-.91 1.638h5.434zM153.729 20.398c.642-.624.962-1.508.962-2.652 0-1.144-.32-2.02-.962-2.626-.641-.624-1.378-.936-2.21-.936-.832 0-1.568.312-2.21.936-.641.624-.962 1.508-.962 2.652 0 1.144.321 2.028.962 2.652.642.607 1.378.91 2.21.91.832 0 1.569-.312 2.21-.936zm-7.982 2.704c-1.282-1.387-1.924-3.163-1.924-5.33 0-2.167.642-3.943 1.924-5.33 1.283-1.404 2.843-2.106 4.68-2.106 1.855 0 3.276.685 4.264 2.054v-1.898h4.446V25h-4.446v-2.106c-1.074 1.525-2.513 2.288-4.316 2.288-1.802 0-3.345-.693-4.628-2.08zM163.044 25V5.76h4.446V25h-4.446z"/>
    <circle cx="16" cy="17" r="15.5" fill="#D5E1FF" stroke="#C3D5FF"/>
    <circle cx="28" cy="12" r="12" fill="#39C5D8"/>
</svg>
