<svg xmlns="http://www.w3.org/2000/svg" width="167" height="33" fill="none" viewBox="0 0 167 33">
    <path fill="#2B2D33" d="M57.425 10.169v2.152c.914-1.54 2.372-2.31 4.373-2.31 1.07 0 2.019.245 2.847.735.845.49 1.5 1.19 1.967 2.1a6.136 6.136 0 0 1 2.07-2.047 5.418 5.418 0 0 1 2.872-.788c1.76 0 3.157.552 4.192 1.654 1.035 1.103 1.553 2.634 1.553 4.594v8.557h-4.4v-7.953c0-.945-.25-1.672-.75-2.18-.483-.524-1.156-.787-2.018-.787-.863 0-1.544.263-2.044.788-.484.507-.725 1.234-.725 2.179v7.953h-4.4v-7.953c0-.945-.25-1.672-.75-2.18-.483-.524-1.156-.787-2.018-.787-.863 0-1.544.263-2.044.788-.483.507-.725 1.234-.725 2.179v7.953H53V10.17h4.425zM85.088 8.515a2.48 2.48 0 0 1-1.838.761 2.48 2.48 0 0 1-1.837-.761c-.5-.508-.75-1.129-.75-1.864 0-.752.25-1.382.75-1.89A2.48 2.48 0 0 1 83.25 4a2.48 2.48 0 0 1 1.838.761c.5.508.75 1.138.75 1.89 0 .735-.25 1.357-.75 1.864zM81.05 24.816V10.17h4.425v14.647H81.05zM95.498 21.01h1.578v3.806h-2.25c-1.623 0-2.882-.358-3.779-1.076-.88-.735-1.32-1.986-1.32-3.754v-6.09h-1.345V10.17h1.345v-3.57h4.425v3.57h2.898v3.727h-2.898v6.09c0 .683.449 1.024 1.346 1.024zM104.53 10.169v2.152c.914-1.54 2.372-2.31 4.373-2.31 1.07 0 2.019.245 2.847.735.845.49 1.501 1.19 1.967 2.1a6.132 6.132 0 0 1 2.07-2.047 5.416 5.416 0 0 1 2.872-.788c1.76 0 3.157.552 4.192 1.654 1.036 1.103 1.553 2.634 1.553 4.594v8.557h-4.399v-7.953c0-.945-.25-1.672-.751-2.18-.483-.524-1.155-.787-2.018-.787-.863 0-1.544.263-2.044.788-.483.507-.725 1.234-.725 2.179v7.953h-4.399v-7.953c0-.945-.25-1.672-.751-2.18-.483-.524-1.155-.787-2.018-.787-.863 0-1.544.263-2.044.788-.483.507-.725 1.234-.725 2.179v7.953h-4.425V10.17h4.425zM134.289 25c-2.105 0-3.83-.683-5.176-2.047-1.345-1.383-2.018-3.212-2.018-5.487s.664-4.086 1.992-5.434c1.346-1.347 3.08-2.02 5.202-2.02s3.881.664 5.279 1.994c1.397 1.33 2.096 3.176 2.096 5.539 0 .507-.035.98-.104 1.417h-9.937a2.49 2.49 0 0 0 .854 1.602c.483.402 1.001.604 1.553.604.569 0 .992-.053 1.268-.158.276-.123.474-.236.595-.341.138-.123.311-.315.518-.578h4.787c-.414 1.47-1.242 2.66-2.484 3.57-1.242.893-2.717 1.339-4.425 1.339zm2.769-8.846c-.069-.683-.363-1.234-.88-1.654-.518-.438-1.13-.656-1.837-.656-.708 0-1.303.219-1.786.656-.483.42-.785.971-.906 1.654h5.409zM153.305 20.17c.638-.63.957-1.523.957-2.678s-.319-2.038-.957-2.65c-.639-.63-1.372-.946-2.2-.946-.828 0-1.561.315-2.2.945-.638.63-.957 1.523-.957 2.678s.319 2.047.957 2.677c.639.613 1.372.919 2.2.919.828 0 1.561-.315 2.2-.945zm-7.945 2.73c-1.276-1.4-1.915-3.194-1.915-5.381 0-2.188.639-3.981 1.915-5.381 1.277-1.418 2.829-2.127 4.658-2.127 1.846 0 3.261.692 4.244 2.074v-1.916h4.425v14.647h-4.425V22.69c-1.07 1.54-2.501 2.31-4.296 2.31-1.794 0-3.329-.7-4.606-2.1zM162.575 24.816V5.391H167v19.425h-4.425z"/>
    <circle cx="16" cy="17" r="16" fill="#4757E8"/>
    <circle cx="28" cy="12" r="12" fill="#00C1DB"/>
</svg>
