<svg xmlns="http://www.w3.org/2000/svg" width="17" height="21" fill="none" viewBox="0 0 17 21">
    <path fill="#999" d="M8.5 12.6c2.344 0 4.25-1.884 4.25-4.2 0-2.316-1.906-4.2-4.25-4.2-2.344 0-4.25 1.884-4.25 4.2 0 2.316 1.906 4.2 4.25 4.2zm0-6.3c1.172 0 2.125.942 2.125 2.1 0 1.158-.953 2.1-2.125 2.1-1.172 0-2.125-.942-2.125-2.1 0-1.158.953-2.1 2.125-2.1z"/>
    <path fill="#999" d="M7.884 20.805a1.069 1.069 0 0 0 1.232 0C9.44 20.579 17.031 15.162 17 8.4 17 3.768 13.187 0 8.5 0 3.813 0 0 3.768 0 8.395c-.03 6.767 7.56 12.184 7.884 12.41zM8.5 2.1c3.516 0 6.375 2.826 6.375 6.305.022 4.66-4.662 8.845-6.375 10.217C6.788 17.249 2.103 13.063 2.125 8.4c0-3.474 2.86-6.3 6.375-6.3z"/>
</svg>
