<svg xmlns="http://www.w3.org/2000/svg" width="255" height="182" fill="none" viewBox="0 0 255 182">
    <path fill="#3040CB" fill-opacity=".4" d="M204.014 65.007c0-3.445-1.344-6.75-3.735-9.186a12.635 12.635 0 0 0-9.017-3.805h-147.8l29.33-29.748a13.169 13.169 0 0 0 3.75-9.224c0-3.46-1.348-6.777-3.75-9.224A12.686 12.686 0 0 0 63.739 0a12.686 12.686 0 0 0-9.054 3.82L3.675 55.784A13.071 13.071 0 0 0 .23 62.45c-.476 2.52-.21 5.128.767 7.494a12.944 12.944 0 0 0 4.67 5.836 12.588 12.588 0 0 0 7.062 2.218h178.533c3.382 0 6.625-1.369 9.017-3.805a13.117 13.117 0 0 0 3.735-9.186zm49.989 47.027a12.944 12.944 0 0 0-4.669-5.836 12.586 12.586 0 0 0-7.063-2.218H63.738a12.632 12.632 0 0 0-9.017 3.805 13.114 13.114 0 0 0-3.735 9.186c0 3.445 1.344 6.749 3.735 9.185a12.632 12.632 0 0 0 9.017 3.805h147.8l-29.331 29.749a13.01 13.01 0 0 0-2.791 4.228 13.21 13.21 0 0 0 0 9.992 12.995 12.995 0 0 0 2.791 4.227 12.75 12.75 0 0 0 4.15 2.844 12.56 12.56 0 0 0 4.905.999c1.683 0 3.35-.34 4.904-.999a12.75 12.75 0 0 0 4.15-2.844l51.009-51.963a13.08 13.08 0 0 0 3.445-6.667c.476-2.52.21-5.127-.767-7.493z"/>
</svg>
