<svg xmlns="http://www.w3.org/2000/svg" width="19" height="19" fill="none" viewBox="0 0 19 19">
    <circle cx="9.5" cy="9.5" r="9.5" fill="#D8E3FA"/>
    <path fill="#8994E1" d="M16 9.5a.89.89 0 0 1-.268.637l-3.714 3.597a.93.93 0 0 1-.66.266.954.954 0 0 1-.659-.266.898.898 0 0 1-.275-.638.876.876 0 0 1 .275-.639l2.133-2.056H3.93a.945.945 0 0 1-.657-.264A.885.885 0 0 1 3 9.501V9.5c0-.239.098-.468.272-.636a.944.944 0 0 1 .657-.264h8.903L10.7 6.543a.898.898 0 0 1-.275-.639.875.875 0 0 1 .275-.638.93.93 0 0 1 .66-.266.955.955 0 0 1 .659.266l3.714 3.597A.89.89 0 0 1 16 9.5z"/>
</svg>
