<svg xmlns="http://www.w3.org/2000/svg" width="23" height="16" fill="none" viewBox="0 0 23 16">
    <path fill="#999" d="M17.921 5.715c0-.303-.118-.593-.328-.808a1.11 1.11 0 0 0-.792-.334H3.818l2.576-2.615a1.158 1.158 0 0 0 0-1.622A1.114 1.114 0 0 0 5.6 0c-.298 0-.584.12-.795.336L.323 4.904a1.163 1.163 0 0 0 .175 1.758c.183.126.399.194.62.195h15.683c.297 0 .582-.12.792-.335.21-.214.328-.504.328-.807zm4.391 4.134a1.137 1.137 0 0 0-.41-.513 1.105 1.105 0 0 0-.62-.195H5.599c-.297 0-.582.12-.792.335a1.154 1.154 0 0 0 0 1.615c.21.214.495.334.792.334h12.983l-2.576 2.615a1.142 1.142 0 0 0-.332.811 1.16 1.16 0 0 0 .332.811A1.12 1.12 0 0 0 16.8 16a1.103 1.103 0 0 0 .795-.338l4.481-4.568a1.163 1.163 0 0 0 .235-1.245z"/>
</svg>
