<svg xmlns="http://www.w3.org/2000/svg" width="368" height="434" fill="none" viewBox="0 0 368 434">
    <path fill="#3040CB" fill-opacity=".1" fill-rule="evenodd" d="M249.382 346.574C286.79 318.671 311 274.153 311 224c0-84.5-68.724-153-153.5-153S4 139.5 4 224c0 41.723 16.755 79.545 43.925 107.147l-22.756 43.524c-2.721 5.339-.526 11.871 4.868 14.493 5.441 2.575 11.933.191 14.415-5.292l17.817-39.868C88.439 364.664 121.524 377 157.5 377c28.372 0 54.946-7.672 77.748-21.049l26.567 70.64c2.148 5.578 8.496 8.344 14.081 6.055 5.537-2.288 8.114-8.725 5.632-14.255l-32.146-71.817z" clip-rule="evenodd"/>
    <path fill="#A0C0FF" d="M361.127 136.022L237.315 260.077 85.675 133.972 202.616 0l158.512 136.022z"/>
    <path fill="#00C1DB" d="M368 196.714l-160.469 70.657-95.413-172.542 157.653-82.385L368 196.714z"/>
    <path fill="#4D5CE2" d="M147.821 357.957c81.639 0 147.82-66.107 147.82-147.655 0-81.547-66.181-147.655-147.82-147.655C66.181 62.647 0 128.755 0 210.302c0 81.548 66.181 147.655 147.821 147.655z"/>
    <path fill="#3040CB" d="M114.028 336.121c-46.108-10.87-68.732-37.236-79.662-58.166-12.744-24.315-12.84-46.294-12.84-47.2 0-2.67 2.196-4.863 4.869-4.863 2.673 0 4.868 2.193 4.868 4.863 0 .286.191 20.835 11.933 43.052 15.655 29.608 43.53 48.011 82.86 54.781 2.625.429 4.439 2.956 3.961 5.626-.477 2.67-2.959 4.434-5.632 3.957-3.58-.572-7.016-1.287-10.357-2.05z" opacity=".8"/>
    <path fill="#fff" d="M241.849 128.203a3.916 3.916 0 0 1-3.245-1.764c-17.136-26.127-38.853-31.038-39.044-31.085-2.1-.43-3.389-2.48-2.959-4.578.43-2.097 2.482-3.385 4.534-2.955 1.003.19 24.916 5.482 43.912 34.422 1.146 1.764.668 4.148-1.098 5.34-.62.381-1.384.62-2.1.62zM259.557 155.283c-1.432 0-2.864-.81-3.484-2.241-4.105-8.725-7.589-11.68-7.637-11.68a3.854 3.854 0 0 1-.716-5.388c1.289-1.669 3.723-2.002 5.441-.715.478.381 4.964 4.005 9.928 14.494.907 1.907.048 4.243-1.861 5.101-.573.334-1.098.429-1.671.429z" opacity=".8"/>
    <path fill="#fff" d="M292.443 417.934l-74.03-165.39-9.498 3.909 63.815 169.682c2.148 5.578 8.496 8.343 14.081 6.055 5.537-2.289 8.114-8.725 5.632-14.256z"/>
    <path fill="#fff" d="M207.913 187.513l13.89 33.612a4.508 4.508 0 0 1-2.482 5.912 4.516 4.516 0 0 1-5.919-2.48l-15.703-37.95a3.578 3.578 0 0 0-3.532-2.241c-2.53.095-4.2 2.67-3.198 5.054l15.99 38.666c.811 1.954-.144 4.195-2.053 4.958l-1.575.572c-1.861.763-4.009-.095-4.773-2.002l-15.799-38.189c-1.05-2.575-4.391-3.195-6.348-1.24a3.803 3.803 0 0 0-.811 4.195l15.894 38.476a3.346 3.346 0 0 1-1.814 4.386l-2.195.906a3.354 3.354 0 0 1-4.392-1.812l-13.841-33.564c-.573-1.383-2.53-1.192-2.912.19-2.816 10.918-1.861 24.268 3.532 37.331 10.453 25.317 33.65 39.715 51.787 32.277 18.138-7.485 24.391-34.041 13.938-59.357-5.68-13.683-15.083-24.22-25.393-29.798-1.336-.715-2.911.667-2.291 2.098z"/>
    <path fill="#B3B3B3" d="M218.366 269.85c-7.78 4.434-14.701 2.766-19.235.477-4.964-2.527-8.067-6.246-8.162-6.389-.716-.905-.621-2.24.286-2.956a2.07 2.07 0 0 1 2.96.287c.429.524 10.405 12.395 22.91 4.386 1.002-.62 2.291-.334 2.912.62.62 1.001.334 2.288-.621 2.908-.334.238-.716.477-1.05.667z" opacity=".2"/>
    <path fill="#fff" d="M33.889 375.454l73.934-165.438-9.212-4.434-84.006 160.671c-2.72 5.339-.524 11.871 4.869 14.493 5.441 2.575 11.933.191 14.415-5.292z"/>
    <path fill="#fff" d="M93.732 227.19c17.692 8.516 41.673-4.561 53.562-29.208 11.89-24.647 7.186-51.53-10.507-60.046-17.692-8.516-41.673 4.561-53.563 29.208s-7.185 51.531 10.508 60.046z"/>
    <path fill="#B3B3B3" d="M95.413 223.413c-8.496-2.813-11.837-9.106-13.174-13.969-1.432-5.388-.716-10.155-.668-10.346.19-1.144 1.241-1.955 2.434-1.764 1.146.191 1.957 1.24 1.766 2.432-.095.667-2.29 16.019 12.028 19.976 1.146.334 1.766 1.478 1.48 2.622-.334 1.145-1.48 1.764-2.625 1.478-.477-.143-.86-.286-1.241-.429z" opacity=".2"/>
    <path fill="#D8E3FA" fill-opacity=".6" d="M99.26 215.314c11.304 5.441 27.481-4.687 36.132-22.62 8.651-17.934 6.5-36.883-4.804-42.323-11.304-5.441-27.481 4.686-36.132 22.62-8.651 17.933-6.5 36.882 4.804 42.323z"/>
</svg>
